<svg width="35" height="30" viewBox="0 0 35 30" fill="none" xmlns="http://www.w3.org/2000/svg">
<path d="M14.2596 2.44983C14.2596 3.83667 13.9685 5.802 13.0097 7.47908M13.0097 7.47908C11.9572 9.31993 10.1001 10.8135 6.94044 10.8135C3.72983 10.8135 2 9.72258 2 7.9953C2 6.26802 3.70315 4.99529 6.94044 4.99529C8.95051 4.99529 10.9194 5.94611 13.0097 7.47908ZM13.0097 7.47908C15.8667 9.57436 18.9506 12.7572 22.6767 16.0862C27.6347 20.516 18.9866 27.2277 17.2727 27.9044C15.5588 27.2277 6.91054 20.516 11.8686 16.0862C15.5947 12.7572 18.6786 9.57436 21.5356 7.47908M20.2857 2.44983C20.2857 3.83667 20.5768 5.802 21.5356 7.47908M21.5356 7.47908C22.5881 9.31993 24.4451 10.8135 27.6048 10.8135C30.8154 10.8135 32.5453 9.72258 32.5453 7.9953C32.5453 6.26802 30.8421 4.99529 27.6048 4.99529C25.5948 4.99529 23.6259 5.94611 21.5356 7.47908Z" stroke="#F7F7F7" stroke-width="3" stroke-linecap="round" stroke-linejoin="round"/>
</svg>
