<svg width="41" height="20" viewBox="0 0 41 20" fill="none" xmlns="http://www.w3.org/2000/svg">
<path d="M0.972 20V18.056L3.456 17.354L2.97 18.11V2.99L3.645 3.8L0.972 3.071V1.127L6.993 0.991998H9.612C11.772 0.991998 13.401 1.442 14.499 2.342C15.597 3.242 16.146 4.538 16.146 6.23C16.146 7.742 15.678 8.993 14.742 9.983C13.824 10.973 12.375 11.576 10.395 11.792L10.422 11.36C11.124 11.378 11.7 11.486 12.15 11.684C12.6 11.882 12.969 12.161 13.257 12.521C13.563 12.863 13.842 13.277 14.094 13.763L16.254 17.921L15.147 17.246L17.631 18.056V20H13.203L10.773 14.789C10.449 14.105 10.17 13.583 9.936 13.223C9.702 12.845 9.414 12.593 9.072 12.467C8.73 12.323 8.235 12.26 7.587 12.278H6.183L6.831 11.738V18.11L6.318 17.327L9.045 18.056V20H0.972ZM6.831 10.55L6.183 9.605H8.424C9.684 9.605 10.629 9.344 11.259 8.822C11.889 8.3 12.204 7.526 12.204 6.5C12.204 5.636 11.952 4.961 11.448 4.475C10.944 3.989 10.17 3.746 9.126 3.746H6.183L6.831 3.152V10.55ZM40.9048 1.856L38.0428 2.288L38.2858 1.991V19.298L38.0428 19.001L40.9048 19.433V20H34.7758V19.433L37.6378 19.001L37.3948 19.298V2.45L37.5298 2.477L30.4828 15.086L29.7268 15.194L22.8688 2.396L23.0308 2.369V19.298L22.7878 19.028L25.6498 19.433V20H19.5748V19.433L22.4368 19.001L22.1938 19.298V1.991L22.4368 2.288L19.5748 1.991V1.424L23.3278 1.289L30.2668 14.33H30.0778L37.2058 1.424L40.9048 1.289V1.856Z" fill="#F7F7F7"/>
</svg>
