<svg width="28" height="28" viewBox="0 0 28 28" fill="none" xmlns="http://www.w3.org/2000/svg">
<path fill-rule="evenodd" clip-rule="evenodd" d="M13.2925 0.935153C13.7338 0.592505 14.3508 0.591153 14.7936 0.931866L23.5562 7.67444L25.605 6.21257C26.1567 5.81889 26.9232 5.94703 27.3168 6.49878C27.7105 7.05052 27.5824 7.81695 27.0306 8.21063L24.2414 10.2008C23.8016 10.5146 23.2083 10.5039 22.7801 10.1744L15.2724 4.39741L15.2725 7.50296L23.5561 13.8771L25.605 12.4152C26.1567 12.0215 26.9231 12.1496 27.3168 12.7014C27.7105 13.2531 27.5823 14.0196 27.0306 14.4133L24.2414 16.4034C23.8016 16.7172 23.2083 16.7065 22.7801 16.377L15.2725 10.6L15.2724 26.4498C15.2724 27.1276 14.723 27.6771 14.0452 27.6771C13.3674 27.6771 12.8179 27.1276 12.8179 26.4498V4.41123L5.31443 10.2375C4.8846 10.5712 4.2863 10.582 3.84466 10.2641L1.05543 8.25581C0.505368 7.85977 0.380513 7.09281 0.776555 6.54275C1.1726 5.99269 1.93956 5.86784 2.48962 6.26388L4.53402 7.73585L13.2925 0.935153Z" fill="#F7F7F7"/>
</svg>
